# Blender v2.78 (sub 0) OBJ File: 'ship_v1.blend'
# www.blender.org
mtllib ship_v1.mtl
o Cube
v 1.505856 -0.109738 -1.268440
v 0.938954 -0.237930 0.356562
v 1.505857 0.138248 -1.268440
v 0.746252 0.001698 0.731560
v 0.333456 -0.237930 -1.268440
v 0.397920 -0.237930 0.731559
v 0.333457 0.033762 -1.268440
v 0.397920 0.266440 0.731560
v 1.000000 -0.237930 0.008766
v 1.000000 -0.006950 0.008766
v 0.397920 -0.237930 1.340349
v 0.397920 -0.237930 0.008766
v 0.397920 0.033762 0.008766
v 0.397920 0.457684 0.726317
v 0.397920 0.394145 0.014009
v 0.397920 0.283870 1.340350
v 0.397920 0.366880 1.335107
v 0.224105 0.077697 1.729187
v 0.236503 0.156398 1.728391
v 0.365627 -0.237930 -0.631046
v 1.253406 -0.109738 -0.631046
v 1.253407 0.138248 -0.631045
v 0.365627 0.033762 -0.631046
v 0.397920 0.206433 0.011211
v 0.350623 -0.237930 -0.928317
v 1.371145 -0.109738 -0.928317
v 1.371145 0.138248 -0.928316
v 0.350624 0.033762 -0.928316
v 0.858681 -0.237930 -1.268440
v 0.667647 -0.237930 0.731559
v 0.858682 0.202667 -1.268440
v 0.553970 0.001698 0.731560
v 0.667647 0.138000 0.008766
v 0.667647 -0.237930 0.008766
v 0.763345 -0.237930 -0.631046
v 0.763345 0.296728 -0.631045
v 0.807809 0.414304 -0.928316
v 0.807808 -0.237930 -0.928317
v 0.189843 -0.301072 -1.594844
v 0.189844 0.066959 -1.594843
v 0.906364 -0.283636 -1.595148
v 0.854045 0.164983 -1.591337
v -1.505856 -0.109738 -1.268440
v -0.938954 -0.237930 0.356562
v -1.505857 0.138248 -1.268440
v -0.746252 0.001698 0.731560
v 0.000000 -0.237930 -1.268441
v 0.000000 -0.237930 0.731559
v 0.000000 0.266440 -1.268440
v 0.000000 -0.237930 1.340349
v -0.333456 -0.237930 -1.268440
v -0.397920 -0.237930 0.731559
v -0.333457 0.033762 -1.268440
v -0.397920 0.266440 0.731560
v -1.000000 -0.237930 0.008766
v -1.000000 -0.006950 0.008766
v -0.397920 -0.237930 1.340349
v 0.000000 -0.237930 0.008766
v -0.397920 -0.237930 0.008766
v -0.397920 0.033762 0.008766
v 0.000000 0.526661 0.726317
v -0.397920 0.457684 0.726317
v 0.000000 0.403995 0.014008
v -0.397920 0.394145 0.014009
v -0.397920 0.283870 1.340350
v 0.000000 0.431041 1.335107
v -0.397920 0.366880 1.335107
v 0.000000 0.072148 1.729305
v -0.224105 0.077697 1.729187
v 0.000000 0.152699 1.728674
v -0.236503 0.156398 1.728391
v 0.000000 -0.237930 -0.631046
v -0.365627 -0.237930 -0.631046
v -1.253406 -0.109738 -0.631046
v -1.253407 0.138248 -0.631045
v -0.365627 0.033762 -0.631046
v -0.397920 0.206433 0.011211
v 0.000000 -0.237930 -0.928317
v -0.350623 -0.237930 -0.928317
v -1.371145 -0.109738 -0.928317
v -1.371145 0.138248 -0.928316
v -0.350624 0.033762 -0.928316
v -0.858681 -0.237930 -1.268440
v -0.667647 -0.237930 0.731559
v -0.858682 0.202667 -1.268440
v -0.553970 0.001698 0.731560
v -0.667647 0.138000 0.008766
v -0.667647 -0.237930 0.008766
v -0.763345 -0.237930 -0.631046
v -0.763345 0.296728 -0.631045
v -0.807809 0.414304 -0.928316
v -0.807808 -0.237930 -0.928317
v -0.189843 -0.301072 -1.594844
v -0.189844 0.066959 -1.594843
v -0.906364 -0.283636 -1.595148
v -0.854045 0.164983 -1.591337
vn 0.9463 0.1668 0.2769
vn 0.0000 0.0000 -1.0000
vn 0.1631 0.9752 0.1493
vn 1.0000 0.0000 0.0000
vn 0.0000 -1.0000 0.0000
vn 0.3525 0.9352 -0.0346
vn -0.0000 -0.0000 1.0000
vn 0.0139 -0.9866 0.1624
vn -0.4803 0.8730 0.0845
vn 0.9987 0.0007 -0.0504
vn 0.9297 -0.0000 0.3682
vn 0.0977 0.9868 -0.1290
vn 0.3091 0.9321 -0.1887
vn 0.9164 -0.0184 0.3999
vn 0.0802 0.8392 0.5378
vn 0.0071 -0.7784 0.6278
vn 0.9201 0.0247 0.3909
vn -0.5965 0.7925 0.1272
vn -0.4681 0.8369 -0.2836
vn 0.0007 0.0089 1.0000
vn 0.2069 -0.9767 0.0564
vn 0.2641 0.9390 -0.2201
vn 0.3666 0.8886 0.2757
vn 0.2360 -0.9696 0.0644
vn 0.1538 -0.9865 -0.0569
vn 0.3299 0.8943 0.3024
vn 0.6159 -0.2020 0.7614
vn 0.2633 0.9528 0.1511
vn 0.0019 0.0048 -1.0000
vn -0.9153 0.0000 0.4027
vn 0.9966 0.0584 0.0585
vn -0.2189 0.9748 0.0432
vn -0.9463 0.1668 0.2769
vn -0.1631 0.9752 0.1493
vn -1.0000 0.0000 0.0000
vn -0.3525 0.9352 -0.0346
vn -0.0139 -0.9866 0.1624
vn 0.4803 0.8730 0.0845
vn -0.9987 0.0007 -0.0504
vn -0.9297 -0.0000 0.3682
vn -0.0977 0.9868 -0.1290
vn -0.3091 0.9321 -0.1887
vn -0.9164 -0.0184 0.3999
vn -0.0802 0.8392 0.5378
vn -0.0071 -0.7784 0.6278
vn -0.9201 0.0247 0.3909
vn 0.5965 0.7925 0.1272
vn 0.4681 0.8369 -0.2836
vn -0.0007 0.0089 1.0000
vn -0.2069 -0.9767 0.0564
vn -0.2641 0.9390 -0.2201
vn -0.3666 0.8886 0.2757
vn -0.2360 -0.9696 0.0644
vn -0.1538 -0.9865 -0.0569
vn -0.3299 0.8943 0.3024
vn -0.6159 -0.2020 0.7614
vn -0.2633 0.9528 0.1511
vn -0.0019 0.0048 -1.0000
vn 0.9153 0.0000 0.4027
vn -0.9966 0.0584 0.0585
vn 0.2189 0.9748 0.0432
usemtl SpaceMaterial
s off
f 9//1 10//1 4//1 2//1
f 7//2 5//2 47//2 49//2
f 14//3 61//3 66//3 17//3
f 14//4 17//4 16//4 8//4
f 12//5 6//5 48//5 58//5
f 34//5 30//5 6//5 12//5
f 33//6 13//6 8//6 32//6
f 30//7 32//7 8//7 6//7
f 29//8 5//8 39//8 41//8
f 36//9 23//9 13//9 33//9
f 35//5 34//5 12//5 20//5
f 20//5 12//5 58//5 72//5
f 24//10 28//10 7//10 15//10
f 21//11 22//11 10//11 9//11
f 15//12 63//12 61//12 14//12
f 7//13 49//13 63//13 15//13
f 6//4 8//4 16//4 11//4
f 48//5 6//5 11//5 50//5
f 15//4 14//4 8//4 24//4
f 11//14 16//14 19//14 18//14
f 17//15 66//15 70//15 19//15
f 50//16 11//16 18//16 68//16
f 19//17 16//17 17//17
f 26//11 27//11 22//11 21//11
f 25//5 20//5 72//5 78//5
f 38//5 35//5 20//5 25//5
f 37//18 28//18 23//18 36//18
f 31//19 7//19 28//19 37//19
f 29//5 38//5 25//5 5//5
f 5//5 25//5 78//5 47//5
f 1//11 3//11 27//11 26//11
f 8//4 13//4 24//4
f 13//10 23//10 28//10 24//10
f 70//20 68//20 18//20 19//20
f 1//21 26//21 38//21 29//21
f 3//22 31//22 37//22 27//22
f 27//23 37//23 36//23 22//23
f 26//24 21//24 35//24 38//24
f 21//25 9//25 34//25 35//25
f 22//26 36//26 33//26 10//26
f 3//2 1//2 29//2 31//2
f 2//27 4//27 32//27 30//27
f 10//28 33//28 32//28 4//28
f 9//5 2//5 30//5 34//5
f 42//29 41//29 39//29 40//29
f 5//30 7//30 40//30 39//30
f 31//31 29//31 41//31 42//31
f 7//32 31//32 42//32 40//32
f 55//33 44//33 46//33 56//33
f 53//2 49//2 47//2 51//2
f 62//34 67//34 66//34 61//34
f 62//35 54//35 65//35 67//35
f 59//5 58//5 48//5 52//5
f 88//5 59//5 52//5 84//5
f 87//36 86//36 54//36 60//36
f 84//7 52//7 54//7 86//7
f 83//37 95//37 93//37 51//37
f 90//38 87//38 60//38 76//38
f 89//5 73//5 59//5 88//5
f 73//5 72//5 58//5 59//5
f 77//39 64//39 53//39 82//39
f 74//40 55//40 56//40 75//40
f 64//41 62//41 61//41 63//41
f 53//42 64//42 63//42 49//42
f 52//35 57//35 65//35 54//35
f 48//5 50//5 57//5 52//5
f 64//35 77//35 54//35 62//35
f 57//43 69//43 71//43 65//43
f 67//44 71//44 70//44 66//44
f 50//45 68//45 69//45 57//45
f 71//46 67//46 65//46
f 80//40 74//40 75//40 81//40
f 79//5 78//5 72//5 73//5
f 92//5 79//5 73//5 89//5
f 91//47 90//47 76//47 82//47
f 85//48 91//48 82//48 53//48
f 83//5 51//5 79//5 92//5
f 51//5 47//5 78//5 79//5
f 43//40 80//40 81//40 45//40
f 54//35 77//35 60//35
f 60//39 77//39 82//39 76//39
f 70//49 71//49 69//49 68//49
f 43//50 83//50 92//50 80//50
f 45//51 81//51 91//51 85//51
f 81//52 75//52 90//52 91//52
f 80//53 92//53 89//53 74//53
f 74//54 89//54 88//54 55//54
f 75//55 56//55 87//55 90//55
f 45//2 85//2 83//2 43//2
f 44//56 84//56 86//56 46//56
f 56//57 46//57 86//57 87//57
f 55//5 88//5 84//5 44//5
f 96//58 94//58 93//58 95//58
f 51//59 93//59 94//59 53//59
f 85//60 96//60 95//60 83//60
f 53//61 94//61 96//61 85//61
